{
	"asset": {
		"generator": "Blocks 4.0.1RC0 SVR",
		"version": "1.1",
		"copyright": "Unknown"
	},
	"buffers": {
		"model": {
			"byteLength": 348086,
			"type": "arraybuffer",
			"uri": "model.bin"
		}
	},
	"accessors": {
		"accessor_position_m0-PolyPaper21_-85246": {
			"bufferView": "vec3BufferView",
			"byteOffset": 0,
			"byteStride": 12,
			"componentType": 5126,
			"count": 1122,
			"max": [ 0.4416381, 2.082524, 1.630558 ],
			"min": [ -0.1307597, 1.690471, 1.423115 ],
			"type": "VEC3"
		 },
		"accessor_normal_m0-PolyPaper21_-85246": {
			"bufferView": "vec3BufferView",
			"byteOffset": 13464,
			"byteStride": 12,
			"componentType": 5126,
			"count": 1122,
			"max": [ 0.9970976, 0.9927012, 0.9985639 ],
			"min": [ -0.9662675, -0.9965588, -0.9970272 ],
			"type": "VEC3"
		 },
		"accessor_color_m0-PolyPaper21_-85246": {
			"bufferView": "vec4BufferView",
			"byteOffset": 0,
			"byteStride": 16,
			"componentType": 5126,
			"count": 1122,
			"max": [ 0.1019608, 0.6078432, 0.8980392, 1 ],
			"min": [ 0, 0.1019608, 0.1019608, 1 ],
			"type": "VEC4"
		 },
		"accessor_indices_0_m0-PolyPaper21_-85246": {
			"bufferView": "ushortBufferView",
			"byteOffset": 0,
			"byteStride": 0,
			"componentType": 5123,
			"count": 1344,
			"max": [ 1121 ],
			"min": [ 0 ],
			"type": "SCALAR"
		 },
		"accessor_position_m1-PolyPaper12_-85252": {
			"bufferView": "vec3BufferView",
			"byteOffset": 26928,
			"byteStride": 12,
			"componentType": 5126,
			"count": 6947,
			"max": [ 0.5248432, 2.045202, 1.649853 ],
			"min": [ -0.03801347, 1.635139, 1.382314 ],
			"type": "VEC3"
		 },
		"accessor_normal_m1-PolyPaper12_-85252": {
			"bufferView": "vec3BufferView",
			"byteOffset": 110292,
			"byteStride": 12,
			"componentType": 5126,
			"count": 6947,
			"max": [ 0.9922062, 0.9988465, 0.9991918 ],
			"min": [ -0.9967901, -0.9987947, -0.9995186 ],
			"type": "VEC3"
		 },
		"accessor_color_m1-PolyPaper12_-85252": {
			"bufferView": "vec4BufferView",
			"byteOffset": 17952,
			"byteStride": 16,
			"componentType": 5126,
			"count": 6947,
			"max": [ 1, 0.9215686, 0.8980392, 1 ],
			"min": [ 0, 0.1019608, 0.1019608, 1 ],
			"type": "VEC4"
		 },
		"accessor_indices_0_m1-PolyPaper12_-85252": {
			"bufferView": "ushortBufferView",
			"byteOffset": 2688,
			"byteStride": 0,
			"componentType": 5123,
			"count": 11319,
			"max": [ 6946 ],
			"min": [ 0 ],
			"type": "SCALAR"
		 }
	},
	"bufferViews": {
		"ushortBufferView": {
			"buffer": "model",
			"byteLength": 25326,
			"byteOffset": 0,
			"target": 34963
		},
		"vec3BufferView": {
			"buffer": "model",
			"byteLength": 193656,
			"byteOffset": 25326,
			"target": 34962
		},
		"vec4BufferView": {
			"buffer": "model",
			"byteLength": 129104,
			"byteOffset": 218982,
			"target": 34962
		}
	},
	"meshes": {
		"mesh_m0-PolyPaper21_-85246": {
			"name": "mesh_m0-PolyPaper21_-85246",
			"primitives": [
				{
					"attributes": {
						"POSITION": "accessor_position_m0-PolyPaper21_-85246",
						"NORMAL": "accessor_normal_m0-PolyPaper21_-85246",
						"COLOR": "accessor_color_m0-PolyPaper21_-85246"
					},
					"indices": "accessor_indices_0_m0-PolyPaper21_-85246",
					"material": "material_mat21",
					"mode": 4
				}
			]
		},
		"mesh_m1-PolyPaper12_-85252": {
			"name": "mesh_m1-PolyPaper12_-85252",
			"primitives": [
				{
					"attributes": {
						"POSITION": "accessor_position_m1-PolyPaper12_-85252",
						"NORMAL": "accessor_normal_m1-PolyPaper12_-85252",
						"COLOR": "accessor_color_m1-PolyPaper12_-85252"
					},
					"indices": "accessor_indices_0_m1-PolyPaper12_-85252",
					"material": "material_mat12",
					"mode": 4
				}
			]
		}
	},
	"shaders": {
		"vertex_mat21": {
			"type": 35633,
			"uri": "https://vr.google.com/shaders/w/vs.glsl"
		},
		"fragment_mat21": {
			"type": 35632,
			"uri": "https://vr.google.com/shaders/w/fs.glsl"
		},
		"vertex_mat12": {
			"type": 35633,
			"uri": "https://vr.google.com/shaders/w/vs.glsl"
		},
		"fragment_mat12": {
			"type": 35632,
			"uri": "https://vr.google.com/shaders/w/fs.glsl"
		}
	},
	"programs": {
		"program_mat21": {
			"attributes": [
				"a_position",
				"a_normal",
				"a_color"				
			],
			"vertexShader": "vertex_mat21",
			"fragmentShader": "fragment_mat21"
		},
		"program_mat12": {
			"attributes": [
				"a_position",
				"a_normal",
				"a_color"				
			],
			"vertexShader": "vertex_mat12",
			"fragmentShader": "fragment_mat12"
		}
	},
	"techniques": {
		"technique_mat21": {
			"program": "program_mat21",
			"extras": {"gvrss" : "https://vr.google.com/shaders/w/gvrss/paper.json"},
			"parameters": {
				"position": {
					"type": 35665,
					"semantic": "POSITION"
				},
				"normal": {
					"type": 35665,
					"semantic": "NORMAL"
				},
				"color": {
					"type": 35666,
					"semantic": "COLOR"
				},
				"modelViewMatrix": {
					"type": 35676,
					"semantic": "MODELVIEW"
				},
				"projectionMatrix": {
					"type": 35676,
					"semantic": "PROJECTION"
				},
				"normalMatrix": {
					"type": 35675,
					"semantic": "MODELVIEWINVERSETRANSPOSE"
				},
				"color": {
					"type": 35666
				},
				"roughness": {
					"type": 5126
				},
				"metallic": {
					"type": 5126
				},
				"light0Pos": {
					"type": 35666
				},
				"light0Color": {
					"type": 35666
				},
				"light1Pos": {
					"type": 35666
				},
				"light1Color": {
					"type": 35666
				}				
			},
			"attributes": {
				"a_position": "position",
				"a_normal": "normal",
				"a_color": "color"				
			},
			"uniforms": {
				"u_modelViewMatrix": "modelViewMatrix",
				"u_projectionMatrix": "projectionMatrix",
				"u_normalMatrix": "normalMatrix",
				"u_color": "color",
				"u_roughness": "roughness",
				"u_metallic": "metallic",
				"u_light0Pos": "light0Pos",
				"u_light0Color": "light0Color",
				"u_light1Pos": "light1Pos",
				"u_light1Color": "light1Color"				
			},
			"states": {
				"enable": [
					2929,
					2884
				],
				"functions": {
					"cullFace": [1029]
				}
			}
		},
		"technique_mat12": {
			"program": "program_mat12",
			"extras": {"gvrss" : "https://vr.google.com/shaders/w/gvrss/paper.json"},
			"parameters": {
				"position": {
					"type": 35665,
					"semantic": "POSITION"
				},
				"normal": {
					"type": 35665,
					"semantic": "NORMAL"
				},
				"color": {
					"type": 35666,
					"semantic": "COLOR"
				},
				"modelViewMatrix": {
					"type": 35676,
					"semantic": "MODELVIEW"
				},
				"projectionMatrix": {
					"type": 35676,
					"semantic": "PROJECTION"
				},
				"normalMatrix": {
					"type": 35675,
					"semantic": "MODELVIEWINVERSETRANSPOSE"
				},
				"color": {
					"type": 35666
				},
				"roughness": {
					"type": 5126
				},
				"metallic": {
					"type": 5126
				},
				"light0Pos": {
					"type": 35666
				},
				"light0Color": {
					"type": 35666
				},
				"light1Pos": {
					"type": 35666
				},
				"light1Color": {
					"type": 35666
				}				
			},
			"attributes": {
				"a_position": "position",
				"a_normal": "normal",
				"a_color": "color"				
			},
			"uniforms": {
				"u_modelViewMatrix": "modelViewMatrix",
				"u_projectionMatrix": "projectionMatrix",
				"u_normalMatrix": "normalMatrix",
				"u_color": "color",
				"u_roughness": "roughness",
				"u_metallic": "metallic",
				"u_light0Pos": "light0Pos",
				"u_light0Color": "light0Color",
				"u_light1Pos": "light1Pos",
				"u_light1Color": "light1Color"				
			},
			"states": {
				"enable": [
					2929,
					2884
				],
				"functions": {
					"cullFace": [1029]
				}
			}
		}
	},
	"materials": {
		"material_mat21": {
			"technique": "technique_mat21",
			"values": {
				"color": [1, 1, 1, 1],
				"roughness": 1,
				"metallic": 0,
				"light0Pos": [-0.02, 4.11, -0.54, 0],
				"light0Color": [1.28, 1.232075, 1.101177, 0],
				"light1Pos": [0.02, -4.11, 0.54, 0],
				"light1Color": [0.2941177, 0.2953672, 0.32, 0]				
			},
			"name": "material_mat21"
		},
		"material_mat12": {
			"technique": "technique_mat12",
			"values": {
				"color": [1, 0.9215686, 0.2313726, 1],
				"roughness": 1,
				"metallic": 0,
				"light0Pos": [-0.02, 4.11, -0.54, 0],
				"light0Color": [1.28, 1.232075, 1.101177, 0],
				"light1Pos": [0.02, -4.11, 0.54, 0],
				"light1Color": [0.2941177, 0.2953672, 0.32, 0]				
			},
			"name": "material_mat12"
		}
	},
	"nodes": {
		"node_MeshObject-2090588160-PolyPaper21": {
			"name": "node_MeshObject-2090588160-PolyPaper21",
			"meshes": [
				"mesh_m0-PolyPaper21_-85246"
			],
			"matrix": [1, 0, 0, 0, 0, 1, 0, 0, 0, 0, 1, 0, 0, 0, 0, 1]
		},
		"node_MeshObject769807360-PolyPaper12": {
			"name": "node_MeshObject769807360-PolyPaper12",
			"meshes": [
				"mesh_m1-PolyPaper12_-85252"
			],
			"matrix": [1, 0, 0, 0, 0, 1, 0, 0, 0, 0, 1, 0, 0, 0, 0, 1]
		}
	},
	"scene": "defaultScene",
	"scenes": {
		"defaultScene": {
			"nodes": [
				"node_MeshObject-2090588160-PolyPaper21",
				"node_MeshObject769807360-PolyPaper12"
			],
			"extras": {

			}
		}
	}
}